<?xml version="1.0" encoding="utf-8"?>
<!-- Svg Vector Icons : http://www.onlinewebfonts.com/icon -->
<!DOCTYPE svg PUBLIC "-//W3C//DTD SVG 1.1//EN" "http://www.w3.org/Graphics/SVG/1.1/DTD/svg11.dtd">
<svg version="1.1" xmlns="http://www.w3.org/2000/svg" xmlns:xlink="http://www.w3.org/1999/xlink" x="0px" y="0px" viewBox="0 0 1000 1000" enable-background="new 0 0 1000 1000" xml:space="preserve">
<metadata> Svg Vector Icons : http://www.onlinewebfonts.com/icon </metadata>
<g><g><path d="M898.1,10H101.9C51.3,10,10,51.3,10,101.9v796.3c0,50.5,41.3,91.9,91.9,91.9h796.3c50.5,0,91.9-41.3,91.9-91.9V101.9C990,51.3,948.7,10,898.1,10z M438.8,745c0,33.7-27.6,61.3-61.3,61.3H255c-33.7,0-61.3-27.6-61.3-61.3V255c0-33.7,27.6-61.3,61.3-61.3h122.5c33.7,0,61.3,27.6,61.3,61.3V745z M806.3,561.3c0,33.7-27.6,61.3-61.3,61.3H622.5c-33.7,0-61.3-27.6-61.3-61.3V255c0-33.7,27.6-61.3,61.3-61.3H745c33.7,0,61.3,27.6,61.3,61.3V561.3z"/></g></g>
</svg>